<svg version="1.0" xmlns="http://www.w3.org/2000/svg"
 width="623.000000pt" height="562.000000pt" viewBox="0 0 623.000000 562.000000"
 preserveAspectRatio="xMidYMid meet">

<g transform="translate(0.000000,562.000000) scale(0.100000,-0.100000)"
fill="#fff" stroke="none">
<path d="M3285 5596 c-63 -63 -42 -326 51 -648 35 -120 56 -178 242 -654 50
-127 133 -358 185 -515 105 -314 125 -366 154 -392 60 -53 534 -167 698 -167
47 0 69 5 86 19 23 19 24 23 24 173 0 84 -4 254 -9 378 -10 252 -4 308 44 464
34 111 39 194 15 273 -30 101 -195 321 -308 412 -95 75 -197 135 -476 280
-299 156 -430 235 -514 312 -101 92 -149 108 -192 65z"/>
<path d="M2855 5583 c-22 -15 -66 -48 -97 -74 -105 -87 -256 -177 -526 -313
-84 -43 -198 -108 -255 -145 -248 -164 -446 -367 -494 -508 -21 -62 -12 -196
21 -327 14 -55 31 -126 37 -159 14 -82 12 -348 -6 -617 -8 -124 -15 -230 -15
-236 0 -16 274 22 435 61 77 19 205 56 284 83 l144 48 63 220 c93 322 194 603
364 1009 118 281 156 396 171 518 15 126 8 390 -12 432 -20 41 -61 44 -114 8z"/>
<path d="M5472 4923 c-33 -47 -68 -123 -113 -248 -54 -149 -165 -376 -252
-517 -130 -210 -150 -272 -167 -510 -29 -405 -67 -703 -125 -968 -58 -273 -72
-387 -51 -428 42 -82 108 -49 242 120 114 142 211 232 359 331 190 127 294
208 381 299 99 103 124 155 101 211 -13 29 -22 37 -52 43 -20 3 -53 4 -73 0
-47 -7 -96 6 -100 26 -5 24 47 77 139 144 132 95 212 167 283 255 106 133 186
314 186 422 0 44 -35 87 -72 87 -49 -1 -166 -52 -339 -150 -203 -114 -283
-152 -311 -148 -17 3 -6 23 72 143 144 218 180 312 180 472 0 150 -50 273
-154 379 -71 74 -102 82 -134 37z"/>
<path d="M625 4896 c-57 -57 -118 -151 -145 -223 -60 -160 -15 -363 128 -573
76 -111 122 -187 122 -200 0 -6 -9 -10 -19 -10 -28 0 -259 120 -479 249 -106
62 -195 111 -196 109 -7 -8 -36 -139 -36 -160 0 -13 7 -51 15 -83 50 -191 187
-370 428 -558 71 -55 131 -107 134 -115 8 -19 -10 -28 -64 -36 -180 -24 -190
-165 -23 -326 37 -36 118 -96 181 -135 146 -89 357 -249 479 -361 171 -157
205 -172 255 -112 27 32 27 35 22 123 -3 49 -17 150 -31 224 -44 229 -65 409
-106 914 -19 239 -42 308 -179 552 -84 148 -207 395 -274 550 -95 222 -131
251 -212 171z"/>
<path d="M3072 4720 c-12 -11 -28 -33 -36 -48 -22 -44 -97 -313 -230 -836
l-125 -488 101 -122 c117 -139 231 -254 281 -280 24 -14 44 -17 70 -12 86 16
225 142 371 335 l78 103 -57 221 c-155 606 -267 1012 -292 1062 -9 17 -27 42
-41 58 -32 34 -87 37 -120 7z"/>
<path d="M3782 3140 c-62 -13 -138 -50 -227 -110 -244 -164 -240 -262 15 -390
54 -27 131 -61 171 -74 67 -23 74 -23 132 -10 147 34 498 155 623 214 87 42
114 70 114 118 0 66 -15 75 -245 146 -115 35 -248 74 -294 86 -96 24 -226 33
-289 20z"/>
<path d="M2285 3110 c-44 -10 -138 -35 -210 -55 -71 -20 -177 -48 -235 -61
-58 -13 -117 -29 -132 -35 -60 -24 -57 -116 6 -164 61 -47 296 -140 546 -217
113 -35 218 -31 335 12 122 44 217 93 265 136 33 30 40 43 40 74 0 65 -63 130
-254 260 -107 73 -203 86 -361 50z"/>
<path d="M3075 2688 c-55 -29 -277 -253 -306 -308 -82 -156 55 -627 240 -823
46 -49 80 -67 128 -67 119 1 230 155 361 500 35 94 56 166 59 205 5 55 2 66
-36 140 -75 147 -191 266 -331 339 -37 20 -70 36 -71 36 -2 -1 -22 -10 -44
-22z"/>
<path d="M1514 2110 c-25 -10 -78 -69 -100 -112 -20 -39 -20 -111 0 -198 32
-140 45 -417 26 -539 -14 -81 -39 -131 -89 -170 -61 -48 -60 -49 -81 73 -15
89 -29 99 -121 94 -135 -8 -247 -86 -307 -216 -24 -50 -27 -69 -27 -162 0 -84
5 -119 23 -172 95 -273 403 -496 879 -632 192 -55 329 -78 443 -74 181 6 189
24 200 454 11 401 -3 1080 -24 1194 -39 217 -77 255 -321 325 -71 21 -164 51
-205 67 -194 76 -246 88 -296 68z"/>
<path d="M4410 2034 c-342 -80 -418 -120 -474 -243 -46 -102 -58 -207 -65
-561 -8 -408 3 -1090 18 -1146 9 -33 19 -45 46 -58 106 -51 378 -16 708 91
259 83 368 146 538 311 183 176 211 237 213 467 1 124 0 132 -26 175 -33 57
-111 131 -169 161 -34 18 -61 23 -123 23 -72 1 -80 -1 -97 -24 -11 -14 -27
-63 -36 -109 l-17 -85 -57 63 c-32 34 -63 79 -70 99 -15 46 -16 158 -5 472 11
295 10 299 -85 360 -78 50 -103 51 -299 4z"/>
</g>
</svg>